# xmcd
#
# Track frame offsets:
#	150
#	20358
#	39639
#	62366
#	79438
#	100117
#	124575
#	156028
#	174110
#	195013
#	212863
#	234434
#	249358
#	274872
#	297000
#
# Disc length: 4363 seconds
# Revision: 0
# Processed by: cddbd v1.5.2PL0 Copyright (c) Steve Scherf et al.
# Submitted via: cdrLabel 7.1
#
DISCID=ba11090f
DTITLE=POCO  -  Bareback @ Big Sky - live
DYEAR=2006
DGENRE=Blues
TTITLE0=Track  1 - Under the Gun
TTITLE1=Track  2 - Nothing Less Than Love
TTITLE2=Track  3 - Every Time I Hear That Train
TTITLE3=Track  4 - Save a Corner of Your Heart for Me
TTITLE4=Track  5 - Barbados
TTITLE5=Track  6 - If Your Heart Needs a Hand
TTITLE6=Track  7 - Cajun Moon
TTITLE7=Track  8 - Never Loved - Never Loved Like This
TTITLE8=Track  9 - Midnight Rain
TTITLE9=Track 10 - What Do People Know
TTITLE10=Track 11 - Shake It
TTITLE11=Track 12 - Find Out In Time
TTITLE12=Track 13 - Too Many Nights Too Long
TTITLE13=Track 14 - Bareback
TTITLE14=Track 15 - On The Way Home
EXTD=
EXTT0=
EXTT1=
EXTT2=
EXTT3=
EXTT4=
EXTT5=
EXTT6=
EXTT7=
EXTT8=
EXTT9=
EXTT10=
EXTT11=
EXTT12=
EXTT13=
EXTT14=
PLAYORDER=
